<?xml version="1.0" encoding="UTF-8"?>
<svg width="100%" viewBox="0 0 680 383" role="img" xmlns="http://www.w3.org/2000/svg">
<title>Growtopia Guide — project cover</title>
<style>.m{font-family:'JetBrains Mono','Courier New',monospace}</style>
<rect width="680" height="383" fill="#f6f3ee"/>
<defs>
  <pattern id="pg" width="32" height="32" patternUnits="userSpaceOnUse">
    <path d="M32 0L0 0 0 32" fill="none" stroke="#ebebeb" stroke-width="0.5"/>
  </pattern>
</defs>
<rect width="680" height="383" fill="url(#pg)"/>
<rect x="0" y="0" width="680" height="36" fill="#fafaf7"/>
<rect x="0" y="35" width="680" height="1" fill="#d8d1c7"/>
<circle cx="72" cy="18" r="5" fill="#b86f5e"/>
<circle cx="90" cy="18" r="5" fill="#9c8d4f"/>
<circle cx="108" cy="18" r="5" fill="#5b8d67"/>
<text x="136" y="23" class="m" font-size="11" fill="#8e98a4">growtopia_guide.html</text>
<line x1="52" y1="36" x2="52" y2="383" stroke="#e8e2d9" stroke-width="1"/>
<text x="64" y="74" class="m" font-size="11" fill="#8e98a4">// project</text>
<text x="64" y="98" class="m" font-size="20" font-weight="500" fill="#1f2933">Growtopia</text>
<text x="64" y="122" class="m" font-size="20" font-weight="500" fill="#9c8d4f">Guide Website</text>
<circle cx="195" cy="248" r="88" fill="none" stroke="#e8e8c0" stroke-width="18"/>
<circle cx="195" cy="248" r="70" fill="none" stroke="#f5f5d8" stroke-width="10"/>
<rect x="165" y="165" width="10" height="10" rx="1" fill="#c8c840"/>
<rect x="165" y="175" width="10" height="10" rx="1" fill="#9c8d4f"/>
<rect x="165" y="185" width="10" height="10" rx="1" fill="#9c8d4f"/>
<rect x="165" y="195" width="10" height="10" rx="1" fill="#9c8d4f"/>
<rect x="175" y="165" width="10" height="10" rx="1" fill="#c8c840"/>
<rect x="185" y="165" width="10" height="10" rx="1" fill="#9c8d4f"/>
<rect x="195" y="165" width="10" height="10" rx="1" fill="#9c8d4f"/>
<rect x="205" y="165" width="10" height="10" rx="1" fill="#9c8d4f"/>
<rect x="215" y="165" width="10" height="10" rx="1" fill="#9c8d4f"/>
<rect x="215" y="175" width="10" height="10" rx="1" fill="#9c8d4f"/>
<rect x="215" y="185" width="10" height="10" rx="1" fill="#9c8d4f"/>
<rect x="215" y="195" width="10" height="10" rx="1" fill="#9c8d4f"/>
<rect x="155" y="205" width="10" height="10" rx="1" fill="#9c8d4f"/>
<rect x="165" y="205" width="10" height="10" rx="1" fill="#9c8d4f"/>
<rect x="175" y="205" width="10" height="10" rx="1" fill="#9c8d4f"/>
<rect x="185" y="205" width="10" height="10" rx="1" fill="#c8c840"/>
<rect x="195" y="205" width="10" height="10" rx="1" fill="#c8c840"/>
<rect x="205" y="205" width="10" height="10" rx="1" fill="#9c8d4f"/>
<rect x="215" y="205" width="10" height="10" rx="1" fill="#9c8d4f"/>
<rect x="225" y="205" width="10" height="10" rx="1" fill="#8a8a38"/>
<rect x="155" y="215" width="10" height="10" rx="1" fill="#9c8d4f"/>
<rect x="165" y="215" width="10" height="10" rx="1" fill="#c8c840"/>
<rect x="175" y="215" width="10" height="10" rx="1" fill="#c8c840"/>
<rect x="185" y="215" width="10" height="10" rx="1" fill="#9c8d4f"/>
<rect x="195" y="215" width="10" height="10" rx="1" fill="#9c8d4f"/>
<rect x="205" y="215" width="10" height="10" rx="1" fill="#9c8d4f"/>
<rect x="215" y="215" width="10" height="10" rx="1" fill="#8a8a38"/>
<rect x="225" y="215" width="10" height="10" rx="1" fill="#8a8a38"/>
<rect x="155" y="225" width="10" height="10" rx="1" fill="#9c8d4f"/>
<rect x="165" y="225" width="10" height="10" rx="1" fill="#9c8d4f"/>
<rect x="175" y="225" width="10" height="10" rx="1" fill="#9c8d4f"/>
<rect x="185" y="225" width="10" height="10" rx="1" fill="#a09888"/>
<rect x="195" y="225" width="10" height="10" rx="1" fill="#a09888"/>
<rect x="205" y="225" width="10" height="10" rx="1" fill="#9c8d4f"/>
<rect x="215" y="225" width="10" height="10" rx="1" fill="#8a8a38"/>
<rect x="225" y="225" width="10" height="10" rx="1" fill="#8a8a38"/>
<rect x="155" y="235" width="10" height="10" rx="1" fill="#9c8d4f"/>
<rect x="165" y="235" width="10" height="10" rx="1" fill="#9c8d4f"/>
<rect x="175" y="235" width="10" height="10" rx="1" fill="#a09888"/>
<rect x="185" y="235" width="10" height="10" rx="1" fill="#a09888"/>
<rect x="195" y="235" width="10" height="10" rx="1" fill="#a09888"/>
<rect x="205" y="235" width="10" height="10" rx="1" fill="#a09888"/>
<rect x="215" y="235" width="10" height="10" rx="1" fill="#8a8a38"/>
<rect x="225" y="235" width="10" height="10" rx="1" fill="#8a8a38"/>
<rect x="155" y="245" width="10" height="10" rx="1" fill="#9c8d4f"/>
<rect x="165" y="245" width="10" height="10" rx="1" fill="#9c8d4f"/>
<rect x="175" y="245" width="10" height="10" rx="1" fill="#9c8d4f"/>
<rect x="185" y="245" width="10" height="10" rx="1" fill="#a09888"/>
<rect x="195" y="245" width="10" height="10" rx="1" fill="#a09888"/>
<rect x="205" y="245" width="10" height="10" rx="1" fill="#9c8d4f"/>
<rect x="215" y="245" width="10" height="10" rx="1" fill="#8a8a38"/>
<rect x="225" y="245" width="10" height="10" rx="1" fill="#8a8a38"/>
<rect x="155" y="255" width="10" height="10" rx="1" fill="#9c8d4f"/>
<rect x="165" y="255" width="10" height="10" rx="1" fill="#9c8d4f"/>
<rect x="175" y="255" width="10" height="10" rx="1" fill="#9c8d4f"/>
<rect x="185" y="255" width="10" height="10" rx="1" fill="#9c8d4f"/>
<rect x="195" y="255" width="10" height="10" rx="1" fill="#9c8d4f"/>
<rect x="205" y="255" width="10" height="10" rx="1" fill="#9c8d4f"/>
<rect x="215" y="255" width="10" height="10" rx="1" fill="#8a8a38"/>
<rect x="225" y="255" width="10" height="10" rx="1" fill="#8a8a38"/>
<rect x="155" y="265" width="10" height="10" rx="1" fill="#8a8a38"/>
<rect x="165" y="265" width="10" height="10" rx="1" fill="#8a8a38"/>
<rect x="175" y="265" width="10" height="10" rx="1" fill="#8a8a38"/>
<rect x="185" y="265" width="10" height="10" rx="1" fill="#8a8a38"/>
<rect x="195" y="265" width="10" height="10" rx="1" fill="#8a8a38"/>
<rect x="205" y="265" width="10" height="10" rx="1" fill="#8a8a38"/>
<rect x="215" y="265" width="10" height="10" rx="1" fill="#8a8a38"/>
<rect x="225" y="265" width="10" height="10" rx="1" fill="#787828"/>
<rect x="135" y="185" width="6" height="6" rx="1" fill="#9c8d4f" opacity="0.5"/>
<rect x="142" y="175" width="4" height="4" rx="1" fill="#9c8d4f" opacity="0.3"/>
<rect x="248" y="192" width="6" height="6" rx="1" fill="#9c8d4f" opacity="0.5"/>
<rect x="256" y="208" width="4" height="4" rx="1" fill="#9c8d4f" opacity="0.3"/>
<rect x="138" y="258" width="5" height="5" rx="1" fill="#9c8d4f" opacity="0.35"/>
<rect x="250" y="255" width="5" height="5" rx="1" fill="#9c8d4f" opacity="0.35"/>
<rect x="150" y="160" width="4" height="4" rx="1" fill="#c8c840" opacity="0.4"/>
<rect x="238" y="168" width="4" height="4" rx="1" fill="#c8c840" opacity="0.4"/>
<rect x="138" y="284" width="115" height="20" rx="3" fill="#f5f5e0" stroke="#9c8d4f" stroke-width="0.8"/>
<text x="195" y="297" class="m" font-size="9" fill="#9c8d4f" text-anchor="middle">Growtopia World Lock</text>
<rect x="113" y="308" width="14" height="14" rx="1" fill="#6a9848" opacity="0.6"/>
<rect x="129" y="308" width="14" height="14" rx="1" fill="#7ab068" opacity="0.6"/>
<rect x="145" y="308" width="14" height="14" rx="1" fill="#6a9848" opacity="0.6"/>
<rect x="161" y="308" width="14" height="14" rx="1" fill="#c8a070" opacity="0.6"/>
<rect x="177" y="308" width="14" height="14" rx="1" fill="#c8a070" opacity="0.6"/>
<rect x="193" y="308" width="14" height="14" rx="1" fill="#c89070" opacity="0.6"/>
<rect x="209" y="308" width="14" height="14" rx="1" fill="#c8a070" opacity="0.6"/>
<rect x="225" y="308" width="14" height="14" rx="1" fill="#7ab068" opacity="0.6"/>
<rect x="241" y="308" width="14" height="14" rx="1" fill="#6a9848" opacity="0.6"/>
<rect x="257" y="308" width="14" height="14" rx="1" fill="#c8a070" opacity="0.6"/>
<rect x="113" y="323" width="14" height="14" rx="1" fill="#c89070" opacity="0.6"/>
<rect x="129" y="323" width="14" height="14" rx="1" fill="#c8a070" opacity="0.6"/>
<rect x="145" y="323" width="14" height="14" rx="1" fill="#c89070" opacity="0.6"/>
<rect x="161" y="323" width="14" height="14" rx="1" fill="#6a9848" opacity="0.6"/>
<rect x="177" y="323" width="14" height="14" rx="1" fill="#c89070" opacity="0.6"/>
<rect x="193" y="323" width="14" height="14" rx="1" fill="#c8a070" opacity="0.6"/>
<rect x="209" y="323" width="14" height="14" rx="1" fill="#6a9848" opacity="0.6"/>
<rect x="225" y="323" width="14" height="14" rx="1" fill="#c89070" opacity="0.6"/>
<rect x="241" y="323" width="14" height="14" rx="1" fill="#c8a070" opacity="0.6"/>
<rect x="257" y="323" width="14" height="14" rx="1" fill="#7ab068" opacity="0.6"/>
<rect x="350" y="83" width="276" height="250" rx="4" fill="#f0f5f0" stroke="#d8d1c7" stroke-width="1"/>
<rect x="350" y="83" width="276" height="18" rx="4" fill="#fafaf7"/>
<circle cx="362" cy="92" r="3" fill="#b86f5e" opacity="0.7"/>
<circle cx="372" cy="92" r="3" fill="#9c8d4f" opacity="0.7"/>
<circle cx="382" cy="92" r="3" fill="#5b8d67" opacity="0.7"/>
<rect x="392" y="86" width="144" height="12" rx="2" fill="#f6f3ee"/>
<text x="464" y="95" class="m" font-size="7" fill="#8e98a4" text-anchor="middle">p1935800.neocities.org</text>
<rect x="350" y="101" width="276" height="16" fill="#f8f5f0"/>
<text x="360" y="112" class="m" font-size="8" fill="#9c8d4f">&#9876; GROWTOPIA GUIDE</text>
<rect x="556" y="104" width="62" height="10" rx="2" fill="#f5f5e0" stroke="#9c8d4f" stroke-width="0.5"/>
<text x="587" y="111" class="m" font-size="6" fill="#9c8d4f" text-anchor="middle">Bootstrap v4</text>
<rect x="358" y="121" width="124" height="12" rx="2" fill="#fafaf7"/>
<text x="364" y="129" class="m" font-size="6" fill="#c9c1b5">Search items, tips...</text>
<rect x="486" y="121" width="34" height="12" rx="2" fill="#f5f5e0" stroke="#9c8d4f" stroke-width="0.5"/>
<text x="503" y="129" class="m" font-size="6" fill="#9c8d4f" text-anchor="middle">Search</text>
<rect x="358" y="137" width="36" height="10" rx="1" fill="#f5f5e0"/>
<text x="376" y="144" class="m" font-size="6" fill="#9c8d4f" text-anchor="middle">Home</text>
<rect x="398" y="137" width="40" height="10" rx="1" fill="#f8f5f0"/>
<text x="418" y="144" class="m" font-size="6" fill="#8e98a4" text-anchor="middle">Farming</text>
<rect x="442" y="137" width="48" height="10" rx="1" fill="#f8f5f0"/>
<text x="466" y="144" class="m" font-size="6" fill="#8e98a4" text-anchor="middle">Progression</text>
<rect x="494" y="137" width="26" height="10" rx="1" fill="#f8f5f0"/>
<text x="507" y="144" class="m" font-size="6" fill="#8e98a4" text-anchor="middle">Tips</text>
<rect x="524" y="137" width="28" height="10" rx="1" fill="#f8f5f0"/>
<text x="538" y="144" class="m" font-size="6" fill="#8e98a4" text-anchor="middle">Items</text>
<rect x="358" y="151" width="260" height="38" rx="2" fill="#e0f5e0" stroke="#d8ead8" stroke-width="0.5"/>
<text x="488" y="165" class="m" font-size="9" fill="#9c8d4f" text-anchor="middle">Welcome to Growtopia Guide</text>
<text x="488" y="175" class="m" font-size="7" fill="#2a5038" text-anchor="middle">Tips · Farming · Progression · Items</text>
<text x="488" y="183" class="m" font-size="6" fill="#3a6040" text-anchor="middle">HTML · CSS · Bootstrap · JavaScript</text>
<rect x="358" y="195" width="80" height="74" rx="2" fill="#fafaf7" stroke="#d8ead8" stroke-width="0.5"/>
<rect x="358" y="195" width="80" height="14" rx="2" fill="#e0f0e0"/>
<text x="398" y="205" class="m" font-size="7" fill="#5b8d67" text-anchor="middle">Farming</text>
<text x="364" y="218" class="m" font-size="6" fill="#2a5038">Surg farms</text>
<text x="364" y="228" class="m" font-size="6" fill="#2a5038">Seed splicing</text>
<text x="364" y="238" class="m" font-size="6" fill="#2a5038">Profit guides</text>
<text x="364" y="248" class="m" font-size="6" fill="#2a5038">Buy/sell tips</text>
<text x="364" y="258" class="m" font-size="6" fill="#3a6040">Growscan info</text>
<rect x="442" y="195" width="80" height="74" rx="2" fill="#fafaf7" stroke="#c8c8d8" stroke-width="0.5"/>
<rect x="442" y="195" width="80" height="14" rx="2" fill="#eeeefa"/>
<text x="482" y="205" class="m" font-size="7" fill="#2f6faa" text-anchor="middle">Levels</text>
<text x="448" y="218" class="m" font-size="6" fill="#2a5888">Newbie guide</text>
<text x="448" y="228" class="m" font-size="6" fill="#2a5888">XP farming</text>
<text x="448" y="238" class="m" font-size="6" fill="#2a5888">Event tips</text>
<text x="448" y="248" class="m" font-size="6" fill="#2a5888">Surgery guide</text>
<text x="448" y="258" class="m" font-size="6" fill="#2a4a78">Fishing 101</text>
<rect x="526" y="195" width="92" height="74" rx="2" fill="#fafaf7" stroke="#c8a880" stroke-width="0.5"/>
<rect x="526" y="195" width="92" height="14" rx="2" fill="#f5eed8"/>
<text x="572" y="205" class="m" font-size="7" fill="#9c8d4f" text-anchor="middle">Items</text>
<text x="532" y="218" class="m" font-size="6" fill="#b07840">World Locks</text>
<text x="532" y="228" class="m" font-size="6" fill="#b07840">Diamond Locks</text>
<text x="532" y="238" class="m" font-size="6" fill="#b07840">Rare seeds</text>
<text x="532" y="248" class="m" font-size="6" fill="#b07840">Gem farming</text>
<text x="532" y="258" class="m" font-size="6" fill="#b09840">Item recipes</text>
<rect x="358" y="275" width="260" height="40" rx="2" fill="#eeeef8" stroke="#c8c8d8" stroke-width="0.5"/>
<text x="366" y="287" class="m" font-size="7" fill="#9a64a0">Featured Tip</text>
<line x1="358" y1="291" x2="618" y2="291" stroke="#eeeefa" stroke-width="0.4"/>
<text x="364" y="302" class="m" font-size="7" fill="#6a5898">Lock your world before building — protect</text>
<text x="364" y="311" class="m" font-size="7" fill="#6a5898">your items from griefers with a World Lock.</text>
<text x="488" y="325" class="m" font-size="6" fill="#c9c1b5" text-anchor="middle">Made with love by Kelyn</text>
</svg>