<?xml version="1.0" encoding="UTF-8"?>
<svg width="100%" viewBox="0 0 680 383" role="img" xmlns="http://www.w3.org/2000/svg">
  <title>Snapsell — project cover</title>
  <style>.mono{font-family:'JetBrains Mono','Courier New',monospace}</style>
  <rect width="680" height="383" fill="#f6f3ee"/>
  <defs>
    <pattern id="grid" width="32" height="32" patternUnits="userSpaceOnUse">
      <path d="M 32 0 L 0 0 0 32" fill="none" stroke="#e8e2d9" stroke-width="0.5"/>
    </pattern>
  </defs>
  <rect width="680" height="383" fill="url(#grid)"/>
  <rect x="0" y="0" width="680" height="36" fill="#fafaf7"/>
  <rect x="0" y="35" width="680" height="1" fill="#d8d1c7"/>
  <circle cx="72" cy="18" r="5" fill="#b86f5e"/>
  <circle cx="90" cy="18" r="5" fill="#9c8d4f"/>
  <circle cx="108" cy="18" r="5" fill="#5b8d67"/>
  <text x="134" y="22" class="mono" font-size="11" fill="#8e98a4">snapsell_routes.js</text>
  <line x1="52" y1="36" x2="52" y2="383" stroke="#d8d1c7" stroke-width="1"/>
  <text x="64" y="65" class="mono" font-size="11" fill="#8e98a4">// project</text>
  <text x="64" y="89" class="mono" font-size="20" font-weight="500" fill="#1f2933">Snapsell</text>
  <text x="64" y="113" class="mono" font-size="20" font-weight="500" fill="#b86f5e">Marketplace App</text>
  <circle cx="175" cy="218" r="72" fill="none" stroke="#f5eed8" stroke-width="18"/>
  <circle cx="175" cy="218" r="56" fill="none" stroke="#e8d8c8" stroke-width="10"/>
  <rect x="130" y="180" width="90" height="60" rx="8" fill="#f5ede0" stroke="#b86f5e" stroke-width="1.2"/>
  <rect x="153" y="173" width="28" height="10" rx="4" fill="#f5ede0" stroke="#b86f5e" stroke-width="1"/>
  <circle cx="175" cy="210" r="18" fill="#f6f3ee" stroke="#b86f5e" stroke-width="1.2"/>
  <circle cx="175" cy="210" r="12" fill="#f8f5e8" stroke="#9c8d4f" stroke-width="0.8"/>
  <circle cx="175" cy="210" r="6" fill="#f5f5e0"/>
  <circle cx="174" cy="210" r="2" fill="#9c8d4f" opacity="0.4"/>
  <circle cx="208" cy="193" r="5" fill="#f5ede0" stroke="#9c8d4f" stroke-width="0.8"/>
  <circle cx="208" cy="193" r="2" fill="#9c8d4f" opacity="0.6"/>
  <line x1="175" y1="193" x2="175" y2="184" stroke="#b86f5e" stroke-width="0.8" opacity="0.5"/>
  <line x1="175" y1="229" x2="175" y2="236" stroke="#b86f5e" stroke-width="0.8" opacity="0.5"/>
  <line x1="157" y1="210" x2="150" y2="210" stroke="#b86f5e" stroke-width="0.8" opacity="0.5"/>
  <line x1="193" y1="210" x2="200" y2="210" stroke="#b86f5e" stroke-width="0.8" opacity="0.5"/>
  <rect x="117" y="260" width="116" height="22" rx="3" fill="#f5e8d8" stroke="#b86f5e" stroke-width="1"/>
  <text x="125" y="274" class="mono" font-size="10" fill="#b86f5e">SNAP. SELL. DONE.</text>
  <rect x="290" y="60" width="110" height="120" rx="4" fill="#f5ede0" stroke="#b86f5e" stroke-width="0.8"/>
  <rect x="290" y="60" width="110" height="68" rx="4" fill="#f5e6d8"/>
  <rect x="312" y="73" width="64" height="42" rx="3" fill="#f5ede5" stroke="#b86f5e" stroke-width="0.8"/>
  <rect x="306" y="115" width="76" height="6" rx="2" fill="#f5ede5" stroke="#b86f5e" stroke-width="0.6"/>
  <rect x="330" y="117" width="28" height="4" rx="1" fill="#b86f5e" opacity="0.4"/>
  <line x1="318" y1="83" x2="370" y2="83" stroke="#9c8d4f" stroke-width="0.5" opacity="0.4"/>
  <line x1="318" y1="90" x2="360" y2="90" stroke="#9c8d4f" stroke-width="0.5" opacity="0.3"/>
  <line x1="318" y1="97" x2="350" y2="97" stroke="#9c8d4f" stroke-width="0.5" opacity="0.2"/>
  <text x="296" y="142" class="mono" font-size="9" fill="#2d3a45">MacBook Pro</text>
  <text x="296" y="154" class="mono" font-size="8" fill="#b86f5e">$850</text>
  <text x="296" y="164" class="mono" font-size="7" fill="#8e98a4">Good condition</text>
  <rect x="296" y="168" width="36" height="10" rx="2" fill="#d8f0e5" stroke="#5b8d67" stroke-width="0.5"/>
  <text x="314" y="175" class="mono" font-size="6" fill="#5b8d67" text-anchor="middle">For Sale</text>
  <rect x="408" y="60" width="110" height="120" rx="4" fill="#e0f5ea" stroke="#2f6faa" stroke-width="0.8"/>
  <rect x="408" y="60" width="110" height="68" rx="4" fill="#e0f5f5"/>
  <rect x="445" y="68" width="36" height="56" rx="5" fill="#ddf5f5" stroke="#2f6faa" stroke-width="0.8"/>
  <rect x="448" y="72" width="30" height="44" rx="2" fill="#e5f5f5"/>
  <circle cx="463" cy="120" r="2.5" fill="#2f6faa" opacity="0.5"/>
  <line x1="451" y1="78" x2="475" y2="78" stroke="#2f6faa" stroke-width="0.5" opacity="0.4"/>
  <line x1="451" y1="84" x2="470" y2="84" stroke="#2f6faa" stroke-width="0.5" opacity="0.3"/>
  <line x1="451" y1="90" x2="465" y2="90" stroke="#2f6faa" stroke-width="0.5" opacity="0.2"/>
  <text x="414" y="142" class="mono" font-size="9" fill="#2d3a45">iPhone 13</text>
  <text x="414" y="154" class="mono" font-size="8" fill="#2f6faa">$480</text>
  <text x="414" y="164" class="mono" font-size="7" fill="#8e98a4">Like new</text>
  <rect x="414" y="168" width="36" height="10" rx="2" fill="#e8f0f8" stroke="#2f6faa" stroke-width="0.5"/>
  <text x="432" y="175" class="mono" font-size="6" fill="#2f6faa" text-anchor="middle">For Sale</text>
  <rect x="526" y="60" width="110" height="120" rx="4" fill="#f5e8f5" stroke="#9a64a0" stroke-width="0.8"/>
  <rect x="526" y="60" width="110" height="68" rx="4" fill="#f5e0f5"/>
  <rect x="548" y="74" width="64" height="44" rx="5" fill="#f0e8f5" stroke="#9a64a0" stroke-width="0.8"/>
  <rect x="560" y="66" width="22" height="10" rx="3" fill="#f0e8f5" stroke="#9a64a0" stroke-width="0.7"/>
  <circle cx="580" cy="96" r="14" fill="none" stroke="#9a64a0" stroke-width="0.8"/>
  <circle cx="580" cy="96" r="8" fill="#f0eaf8"/>
  <circle cx="580" cy="96" r="4" fill="#f5e0f5"/>
  <circle cx="577" cy="93" r="1.5" fill="#9a64a0" opacity="0.5"/>
  <text x="532" y="142" class="mono" font-size="9" fill="#2d3a45">Sony A7III</text>
  <text x="532" y="154" class="mono" font-size="8" fill="#9a64a0">$1,200</text>
  <text x="532" y="164" class="mono" font-size="7" fill="#8e98a4">Lightly used</text>
  <rect x="532" y="168" width="36" height="10" rx="2" fill="#ede0f5" stroke="#9a64a0" stroke-width="0.5"/>
  <text x="550" y="175" class="mono" font-size="6" fill="#9a64a0" text-anchor="middle">Sold</text>
  <rect x="290" y="192" width="346" height="28" rx="4" fill="#fafaf7" stroke="#d8d1c7" stroke-width="0.8"/>
  <text x="302" y="210" class="mono" font-size="9" fill="#c9c1b5">Search listings...</text>
  <rect x="568" y="196" width="62" height="20" rx="3" fill="#f5e8d8" stroke="#b86f5e" stroke-width="0.7"/>
  <text x="599" y="209" class="mono" font-size="9" fill="#b86f5e" text-anchor="middle">Search</text>
  <rect x="290" y="232" width="160" height="64" rx="4" fill="#fafaf7" stroke="#b86f5e" stroke-width="0.8"/>
  <rect x="290" y="232" width="160" height="18" rx="4" fill="#f5e8d8"/>
  <text x="370" y="244" class="mono" font-size="9" fill="#b86f5e" text-anchor="middle">Seller Portal</text>
  <text x="296" y="262" class="mono" font-size="8" fill="#906030">Create listing</text>
  <text x="296" y="273" class="mono" font-size="8" fill="#906030">Manage inventory</text>
  <text x="296" y="284" class="mono" font-size="8" fill="#906030">Track transactions</text>
  <rect x="462" y="232" width="174" height="64" rx="4" fill="#fafaf7" stroke="#2f6faa" stroke-width="0.8"/>
  <rect x="462" y="232" width="174" height="18" rx="4" fill="#e0eaf5"/>
  <text x="549" y="244" class="mono" font-size="9" fill="#2f6faa" text-anchor="middle">Buyer Portal</text>
  <text x="468" y="262" class="mono" font-size="8" fill="#2a5888">Browse listings</text>
  <text x="468" y="273" class="mono" font-size="8" fill="#2a5888">Search &amp; filter</text>
  <text x="468" y="284" class="mono" font-size="8" fill="#2a5888">Purchase &amp; history</text>
  <text x="64" y="320" class="mono" font-size="10" fill="#d8ead8">router.get(</text>
  <text x="130" y="320" class="mono" font-size="10" fill="#9c8d4f">'/listings'</text>
  <text x="197" y="320" class="mono" font-size="10" fill="#2d3a45">, async (req, res) => {</text>
  <text x="74" y="336" class="mono" font-size="10" fill="#4c7fb8">  const</text>
  <text x="111" y="336" class="mono" font-size="10" fill="#2d3a45"> items = await </text>
  <text x="195" y="336" class="mono" font-size="10" fill="#5b8d67">db</text>
  <text x="207" y="336" class="mono" font-size="10" fill="#2d3a45">.query(sql)</text>
  <text x="74" y="352" class="mono" font-size="10" fill="#4c7fb8">  res</text>
  <text x="92" y="352" class="mono" font-size="10" fill="#2d3a45">.json(items)</text>
  <text x="64" y="368" class="mono" font-size="10" fill="#2d3a45">})</text>
</svg>