<?xml version="1.0" encoding="UTF-8"?>
<svg viewBox="0 0 680 383" xmlns="http://www.w3.org/2000/svg">
  <style>.m{font-family:'JetBrains Mono','Courier New',monospace}</style>
  <rect width="680" height="383" fill="#f6f3ee"/>
  <defs><pattern id="gr" width="32" height="32" patternUnits="userSpaceOnUse"><path d="M32 0L0 0 0 32" fill="none" stroke="#ebebeb" stroke-width="0.5"/></pattern></defs>
  <rect width="680" height="383" fill="url(#gr)"/>
  <rect x="0" y="0" width="680" height="36" fill="#fafaf7"/>
  <rect x="0" y="35" width="680" height="1" fill="#d8d1c7"/>
  <circle cx="72" cy="18" r="5" fill="#b86f5e"/><circle cx="90" cy="18" r="5" fill="#9c8d4f"/><circle cx="108" cy="18" r="5" fill="#5b8d67"/>
  <text x="136" y="23" class="m" font-size="11" fill="#8e98a4">docker-compose.yml</text>
  <line x1="52" y1="36" x2="52" y2="383" stroke="#e8e2d9" stroke-width="1"/>
  <text x="64" y="74" class="m" font-size="11" fill="#8e98a4">// project</text>
  <text x="64" y="98" class="m" font-size="20" font-weight="500" fill="#1f2933">Task Master</text>
  <text x="64" y="122" class="m" font-size="20" font-weight="500" fill="#2f6faa">Microservices Platform</text>
  <rect x="64" y="152" width="90" height="44" rx="4" fill="#fafaf7" stroke="#5b8d67" stroke-width="1"/>
  <text x="109" y="172" class="m" font-size="10" fill="#5b8d67" text-anchor="middle">Vue Frontend</text>
  <text x="109" y="185" class="m" font-size="9" fill="#3a6040" text-anchor="middle">SPA / SCSS</text>
  <line x1="154" y1="174" x2="192" y2="152" stroke="#d8d1c7" stroke-width="0.7"/>
  <line x1="154" y1="174" x2="192" y2="188" stroke="#d8d1c7" stroke-width="0.7"/>
  <line x1="154" y1="174" x2="192" y2="224" stroke="#d8d1c7" stroke-width="0.7"/>
  <line x1="154" y1="174" x2="192" y2="260" stroke="#d8d1c7" stroke-width="0.7"/>
  <rect x="192" y="138" width="108" height="30" rx="3" fill="#fafaf7" stroke="#9a64a0" stroke-width="0.8"/>
  <text x="246" y="151" class="m" font-size="9" fill="#9a64a0" text-anchor="middle">AI Idea Service</text>
  <text x="246" y="161" class="m" font-size="8" fill="#6a4080" text-anchor="middle">Flask / Python</text>
  <rect x="192" y="174" width="108" height="30" rx="3" fill="#fafaf7" stroke="#2f6faa" stroke-width="0.8"/>
  <text x="246" y="187" class="m" font-size="9" fill="#2f6faa" text-anchor="middle">Group Service</text>
  <text x="246" y="197" class="m" font-size="8" fill="#304878" text-anchor="middle">Node.js / Express</text>
  <rect x="192" y="210" width="108" height="30" rx="3" fill="#fafaf7" stroke="#9c8d4f" stroke-width="0.8"/>
  <text x="246" y="223" class="m" font-size="9" fill="#9c8d4f" text-anchor="middle">Enroll Service</text>
  <text x="246" y="233" class="m" font-size="8" fill="#6a6030" text-anchor="middle">Flask / Python</text>
  <rect x="192" y="246" width="108" height="30" rx="3" fill="#fafaf7" stroke="#b86f5e" stroke-width="0.8"/>
  <text x="246" y="259" class="m" font-size="9" fill="#b86f5e" text-anchor="middle">Task Service</text>
  <text x="246" y="269" class="m" font-size="8" fill="#7a5030" text-anchor="middle">Node.js / Express</text>
  <rect x="64" y="296" width="236" height="33" rx="3" fill="#e0eaf5" stroke="#2f6faa" stroke-width="0.8" stroke-dasharray="4 2"/>
  <text x="182" y="311" class="m" font-size="9" fill="#2f6faa" text-anchor="middle">Docker Compose orchestration</text>
  <text x="182" y="320" class="m" font-size="8" fill="#2a5888" text-anchor="middle">independently deployable services</text>
  <rect x="326" y="148" width="108" height="44" rx="6" fill="#ede0f5" stroke="#9a64a0" stroke-width="1"/>
  <text x="380" y="168" class="m" font-size="10" fill="#9a64a0" text-anchor="middle">AI Idea Gen</text>
  <text x="380" y="182" class="m" font-size="9" fill="#6a4080" text-anchor="middle">LLM powered</text>
  <line x1="300" y1="153" x2="326" y2="161" stroke="#c8c8d8" stroke-width="0.7" stroke-dasharray="3 2"/>
  <rect x="452" y="100" width="186" height="100" rx="4" fill="#f8f5f0" stroke="#d8d1c7" stroke-width="1"/>
  <rect x="452" y="100" width="186" height="20" rx="4" fill="#ebebeb"/>
  <text x="545" y="114" class="m" font-size="9" fill="#8e98a4" text-anchor="middle">task-board.vue</text>
  <rect x="458" y="126" width="52" height="14" rx="2" fill="#eeeefa"/>
  <text x="484" y="136" class="m" font-size="8" fill="#2f6faa" text-anchor="middle">TODO</text>
  <rect x="458" y="144" width="52" height="22" rx="2" fill="#fafaf7" stroke="#c9c1b5" stroke-width="0.5"/>
  <text x="484" y="154" class="m" font-size="7" fill="#6a7480" text-anchor="middle">Design DB</text>
  <text x="484" y="162" class="m" font-size="7" fill="#8e98a4" text-anchor="middle">@Alice</text>
  <rect x="458" y="170" width="52" height="22" rx="2" fill="#fafaf7" stroke="#c9c1b5" stroke-width="0.5"/>
  <text x="484" y="180" class="m" font-size="7" fill="#6a7480" text-anchor="middle">Write tests</text>
  <text x="484" y="188" class="m" font-size="7" fill="#8e98a4" text-anchor="middle">@Bob</text>
  <rect x="516" y="126" width="52" height="14" rx="2" fill="#e0f0e0"/>
  <text x="542" y="136" class="m" font-size="8" fill="#9c8d4f" text-anchor="middle">IN PROGRESS</text>
  <rect x="516" y="144" width="52" height="22" rx="2" fill="#fafaf7" stroke="#9c8d4f" stroke-width="0.5"/>
  <text x="542" y="154" class="m" font-size="7" fill="#6a7480" text-anchor="middle">Build API</text>
  <text x="542" y="162" class="m" font-size="7" fill="#8e98a4" text-anchor="middle">@Carol</text>
  <rect x="574" y="126" width="58" height="14" rx="2" fill="#d8f5d8"/>
  <text x="603" y="136" class="m" font-size="8" fill="#5b8d67" text-anchor="middle">DONE</text>
  <rect x="574" y="144" width="58" height="22" rx="2" fill="#fafaf7" stroke="#5b8d67" stroke-width="0.5"/>
  <text x="603" y="154" class="m" font-size="7" fill="#6a7480" text-anchor="middle">Setup repo</text>
  <text x="603" y="162" class="m" font-size="7" fill="#5b8d67" text-anchor="middle">&#10003;</text>
  <rect x="574" y="170" width="58" height="22" rx="2" fill="#fafaf7" stroke="#5b8d67" stroke-width="0.5"/>
  <text x="603" y="180" class="m" font-size="7" fill="#6a7480" text-anchor="middle">Auth flow</text>
  <text x="603" y="188" class="m" font-size="7" fill="#5b8d67" text-anchor="middle">&#10003;</text>
  <text x="400" y="284" class="m" font-size="10" fill="#d8ead8">services:</text>
  <text x="400" y="300" class="m" font-size="10" fill="#4c7fb8">  idea-service</text>
  <text x="472" y="300" class="m" font-size="10" fill="#2d3a45">:</text>
  <text x="400" y="316" class="m" font-size="10" fill="#5b8d67">    build</text>
  <text x="432" y="316" class="m" font-size="10" fill="#2d3a45">: ./services/ideas</text>
</svg>